<?xml version="1.0" encoding="UTF-8"?>
<svg version="1.1" xmlns="http://www.w3.org/2000/svg" width="500" height="95">
<path d="M0 0 C165 0 330 0 500 0 C500 31.35 500 62.7 500 95 C335 95 170 95 0 95 C0 63.65 0 32.3 0 0 Z " fill="#222629" transform="translate(0,0)"/>
<path d="M0 0 C4.29 0 8.58 0 13 0 C13.33 5.61 13.66 11.22 14 17 C15.98 15.68 17.96 14.36 20 13 C24.91092988 11.9916224 29.78544642 12.01814291 34.4140625 14.0703125 C39.20877791 17.35657812 42.56347836 21.32573951 44 27 C44.88360158 34.87878077 45.08758177 42.53485763 40 49 C35.82866437 53.44561524 31.62590687 55.76128119 25.5625 56.3125 C20.74099934 55.88956135 17.42424764 54.42424764 14 51 C13.67 52.32 13.34 53.64 13 55 C8.71 55 4.42 55 0 55 C0 36.85 0 18.7 0 0 Z " fill="#FAFAFA" transform="translate(110,32)"/>
<path d="M0 0 C5.61 0 11.22 0 17 0 C17.33 8.58 17.66 17.16 18 26 C19.6396875 22.7825 19.6396875 22.7825 21.3125 19.5 C23.37931862 16.0468499 25.28461906 13.46101777 29.29101562 12.38427734 C34.90071037 11.83691106 40.41962453 12.33580475 46 13 C45.03264217 14.70128801 44.06402459 16.4018767 43.08789062 18.09814453 C42.18305142 19.67998866 41.29968326 21.27409109 40.421875 22.87109375 C36.08992553 29.52083861 36.08992553 29.52083861 32.06835938 30.44287109 C27.3423337 30.86967551 22.70594786 30.51399916 18 30 C18 31.65 18 33.3 18 35 C19.32451172 34.75636719 19.32451172 34.75636719 20.67578125 34.5078125 C30.05606419 33.5204143 30.05606419 33.5204143 33.67822266 36.27734375 C37.34645556 40.10746111 40.18809052 44.52463935 43 49 C43.76462734 50.15603624 44.53258102 51.30988305 45.3046875 52.4609375 C45.86414063 53.29882812 46.42359375 54.13671875 47 55 C29.97608725 57.23385157 29.97608725 57.23385157 25.16943359 53.62597656 C21.92881046 49.86369214 19.88536985 45.56212951 18 41 C17.67 45.62 17.34 50.24 17 55 C11.39 55 5.78 55 0 55 C0 36.85 0 18.7 0 0 Z " fill="#0AF739" transform="translate(378,32)"/>
<path d="M0 0 C5.93864103 2.6010327 9.66797147 7.68750544 12.515625 13.3828125 C13.20435572 20.88013839 13.65523424 27.64911352 8.9296875 33.83984375 C4.36570104 38.81988423 -0.78813499 41.70801296 -7.49609375 42.671875 C-12.52922912 42.8894172 -17.14819201 42.00529443 -21.484375 39.3828125 C-26.13134378 35.0827687 -30.10344354 30.63877406 -30.85546875 24.2109375 C-30.99685306 16.59281818 -30.79311439 11.12669447 -25.484375 5.3828125 C-18.13790315 -1.42611263 -9.72081495 -2.41491944 0 0 Z " fill="#F9F9F9" transform="translate(90.484375,45.6171875)"/>
<path d="M0 0 C3.45435891 2.9286956 6.05116724 5.89719419 8 10 C8.04655046 11.66601646 8.05275134 13.33416835 8 15 C5.22858283 15.08089542 2.45952181 15.14044062 -0.3125 15.1875 C-1.09818359 15.21263672 -1.88386719 15.23777344 -2.69335938 15.26367188 C-3.45068359 15.27333984 -4.20800781 15.28300781 -4.98828125 15.29296875 C-5.68477783 15.3086792 -6.38127441 15.32438965 -7.09887695 15.34057617 C-9.5487416 14.90169584 -10.31210909 13.76040034 -12 12 C-15.34192692 12.24453124 -16.60543557 12.60543557 -19 15 C-18.76135558 20.03505052 -18.76135558 20.03505052 -16 24 C-13.45286596 23.99077298 -13.45286596 23.99077298 -11 23 C-10.34 21.68 -9.68 20.36 -9 19 C-3.39 19 2.22 19 8 19 C7.89235797 25.88909003 6.72570941 29.37224522 1.90625 34.33984375 C-3.37953639 38.94324378 -8.9827886 40.33844548 -15.85546875 40.2109375 C-22.81504323 39.52638919 -28.37480836 36.15133778 -33 31 C-36.88078334 24.86585859 -36.93782145 18.09939603 -36 11 C-33.76492512 5.16857006 -29.79326144 0.92580965 -24.22265625 -1.90234375 C-15.62545321 -5.59658743 -7.98728741 -4.78615666 0 0 Z " fill="#0AF639" transform="translate(317,48)"/>
<path d="M0 0 C3.83577002 1.98805153 6.63862467 4.42897309 8.5625 8.328125 C8.96614978 10.65032706 9.31050928 12.98461135 9.5625 15.328125 C6.77057795 15.38193078 3.9796859 15.42170169 1.1875 15.453125 C0.3934375 15.46988281 -0.400625 15.48664062 -1.21875 15.50390625 C-3.29242015 15.52147973 -5.36633241 15.43147668 -7.4375 15.328125 C-8.0975 14.668125 -8.7575 14.008125 -9.4375 13.328125 C-12.53676819 13.65011466 -12.53676819 13.65011466 -15.4375 14.328125 C-16.4632259 18.73874636 -16.47434712 21.25443076 -14.4375 25.328125 C-12.06444422 25.74593379 -12.06444422 25.74593379 -9.4375 25.328125 C-9.06625 24.503125 -8.695 23.678125 -8.3125 22.828125 C-6.4375 20.328125 -6.4375 20.328125 -4.60668945 19.91674805 C-2.30394815 19.83554761 -0.05084693 19.89293833 2.25 20.015625 C3.44592773 20.04946289 3.44592773 20.04946289 4.66601562 20.08398438 C6.63231334 20.14285556 8.59764491 20.23253745 10.5625 20.328125 C9.93058799 27.3526352 8.61276483 31.24404143 3.5625 36.328125 C-2.62197622 40.95315356 -8.90197981 42.02218607 -16.4375 41.328125 C-22.98049868 39.73911103 -27.41174302 36.7371333 -31.75 31.578125 C-34.9427069 25.50804027 -34.29675654 17.92457135 -33.4375 11.328125 C-31.42032407 5.86555369 -28.38301183 2.52271901 -23.25 -0.171875 C-14.91568345 -3.72258974 -8.34159902 -3.29029739 0 0 Z " fill="#0AF739" transform="translate(362.4375,46.671875)"/>
<path d="M0 0 C4.01789004 0.08928645 5.68170767 0.72511117 8.75 3.375 C12.9185124 8.23826447 13.4401662 10.96562358 13.31640625 17.203125 C12.83441926 21.46365195 11.62147272 23.59917052 9 27 C4.93548387 30 4.93548387 30 2 30 C2.36351563 30.60062256 2.72703125 31.20124512 3.1015625 31.82006836 C4.73664892 34.52451178 6.36836619 37.2309723 8 39.9375 C8.57234375 40.88302734 9.1446875 41.82855469 9.734375 42.80273438 C10.27578125 43.70185547 10.8171875 44.60097656 11.375 45.52734375 C11.87773438 46.35999756 12.38046875 47.19265137 12.8984375 48.05053711 C14 50 14 50 14 51 C9.05 51 4.1 51 -1 51 C-2.67181476 48.04447033 -4.33762179 45.08583038 -6 42.125 C-6.47695313 41.28324219 -6.95390625 40.44148438 -7.4453125 39.57421875 C-7.89648438 38.76855469 -8.34765625 37.96289062 -8.8125 37.1328125 C-9.23144531 36.38918457 -9.65039062 35.64555664 -10.08203125 34.87939453 C-11 33 -11 33 -11 31 C-12.32 31 -13.64 31 -15 31 C-15 37.6 -15 44.2 -15 51 C-18.96 51 -22.92 51 -27 51 C-27 38.46 -27 25.92 -27 13 C-18 10 -18 10 -15 10 C-15 13.96 -15 17.92 -15 22 C-7.36088809 22.13207656 -7.36088809 22.13207656 -1 19 C-0.58333333 15.5 -0.58333333 15.5 -1 12 C-4.16240582 9.89172945 -5.50657469 9.66182535 -9.1875 9.375 C-10.08855469 9.30023438 -10.98960938 9.22546875 -11.91796875 9.1484375 C-12.60503906 9.09945312 -13.29210938 9.05046875 -14 9 C-11.19413693 6.19413693 -7.86992814 4.91473318 -4.3125 3.21875 C-1.89103098 2.08827591 -1.89103098 2.08827591 0 0 Z " fill="#FBFBFB" transform="translate(41,36)"/>
<path d="M0 0 C4.29 0 8.58 0 13 0 C13.33 1.32 13.66 2.64 14 4 C14.763125 3.34 15.52625 2.68 16.3125 2 C20.83409712 -1.00723799 25.77869406 -0.77698005 31 0 C35.39849423 2.19924711 38.95681494 4.8959977 40.56811523 9.69042969 C41.15041199 12.80435129 41.11107807 15.78557439 41.09765625 18.953125 C41.0962413 19.61334656 41.09482635 20.27356812 41.09336853 20.95379639 C41.08779245 23.05257794 41.07524447 25.15125095 41.0625 27.25 C41.0574819 28.67708179 41.05291954 30.10416525 41.04882812 31.53125 C41.03783088 35.02086832 41.0205828 38.51042356 41 42 C37.04 42 33.08 42 29 42 C28.97421875 40.16953125 28.9484375 38.3390625 28.921875 36.453125 C28.86560002 34.05205929 28.80825256 31.65101855 28.75 29.25 C28.73582031 28.0434375 28.72164062 26.836875 28.70703125 25.59375 C28.67480469 24.43359375 28.64257812 23.2734375 28.609375 22.078125 C28.58842773 21.00981445 28.56748047 19.94150391 28.54589844 18.84082031 C27.87234073 15.33566938 26.82442703 14.12999929 24 12 C19.42171281 11.38610515 19.42171281 11.38610515 15.31713867 13.13989258 C13.42023179 15.81876812 13.56480795 17.93918154 13.48828125 21.19921875 C13.45283203 22.40771484 13.41738281 23.61621094 13.38085938 24.86132812 C13.34702148 26.7552832 13.34702148 26.7552832 13.3125 28.6875 C13.27833984 29.96173828 13.24417969 31.23597656 13.20898438 32.54882812 C13.12639805 35.69890643 13.06152609 38.84943999 13 42 C8.71 42 4.42 42 0 42 C0 28.14 0 14.28 0 0 Z " fill="#FBFBFB" transform="translate(183,45)"/>
<path d="M0 0 C4.39357848 -0.09244233 8.78370961 -0.17187966 13.17749023 -0.21972656 C14.66816718 -0.23969458 16.1587673 -0.2668792 17.64916992 -0.30175781 C36.01049705 -0.72031975 36.01049705 -0.72031975 43.02734375 5.91796875 C44.9996378 10.13978694 44.82078089 14.48252378 44 19 C42.35430105 21.77622258 40.42584431 23.884606 38 26 C38.99 26.99 39.98 27.98 41 29 C35.59281183 29.57934159 32.89350344 29.34220083 28.5 26 C27.31806919 25.01808825 26.14576826 24.02387802 25 23 C25.66 24.32 26.32 25.64 27 27 C24.53199953 25.84826645 22.95216435 24.95216435 21 23 C18.93125966 22.3574765 18.93125966 22.3574765 17 22 C17.99 23.65 18.98 25.3 20 27 C17.33333333 25.66666667 14.66666667 24.33333333 12 23 C12.33 23.66 12.66 24.32 13 25 C12.401875 24.67 11.80375 24.34 11.1875 24 C8.94613529 22.79212012 8.94613529 22.79212012 6 23 C6.66 23.61875 7.32 24.2375 8 24.875 C10 27 10 27 10 29 C6.7 28.67 3.4 28.34 0 28 C0 18.76 0 9.52 0 0 Z " fill="#0BF339" transform="translate(232,34)"/>
<path d="M0 0 C1.06541016 0.17208984 1.06541016 0.17208984 2.15234375 0.34765625 C2.83984375 2.59765625 2.83984375 2.59765625 3.15234375 5.34765625 C2.15597062 6.68370204 1.15542748 8.0166413 0.15234375 9.34765625 C-0.83454822 11.91798182 -0.83454822 11.91798182 -1.53515625 14.59765625 C-1.78652344 15.4896875 -2.03789062 16.38171875 -2.296875 17.30078125 C-2.47863281 17.97625 -2.66039063 18.65171875 -2.84765625 19.34765625 C-2.18765625 19.34765625 -1.52765625 19.34765625 -0.84765625 19.34765625 C-0.76515625 18.60515625 -0.68265625 17.86265625 -0.59765625 17.09765625 C0.32751734 13.7053531 1.27681331 12.36829926 4.15234375 10.34765625 C7.21484375 10.09765625 7.21484375 10.09765625 10.15234375 11.34765625 C12.25259361 14.86108538 13.15234375 18.27396062 13.15234375 22.34765625 C13.81234375 22.67765625 14.47234375 23.00765625 15.15234375 23.34765625 C13.38409233 24.49746999 11.61264854 25.64237547 9.83984375 26.78515625 C8.85371094 27.42324219 7.86757813 28.06132813 6.8515625 28.71875 C4.15234375 30.34765625 4.15234375 30.34765625 1.15234375 31.34765625 C1.85101562 31.46882813 2.5496875 31.59 3.26953125 31.71484375 C4.17960937 31.88242187 5.0896875 32.05 6.02734375 32.22265625 C6.93226562 32.38507812 7.8371875 32.5475 8.76953125 32.71484375 C11.15234375 33.34765625 11.15234375 33.34765625 13.15234375 35.34765625 C13.71188068 41.50256253 13.71188068 41.50256253 12.01953125 44.05859375 C8.1444923 46.73382984 2.63108615 45.49213181 -1.84765625 45.34765625 C-1.84765625 41.38765625 -1.84765625 37.42765625 -1.84765625 33.34765625 C-3.27078125 33.84265625 -4.69390625 34.33765625 -6.16015625 34.84765625 C-8.97901511 35.8281289 -10.83275068 36.34765625 -13.84765625 36.34765625 C-13.84765625 48.88765625 -13.84765625 61.42765625 -13.84765625 74.34765625 C-14.17765625 74.34765625 -14.50765625 74.34765625 -14.84765625 74.34765625 C-14.84765625 61.47765625 -14.84765625 48.60765625 -14.84765625 35.34765625 C-17.15765625 34.68765625 -19.46765625 34.02765625 -21.84765625 33.34765625 C-22.17765625 32.68765625 -22.50765625 32.02765625 -22.84765625 31.34765625 C-19.54765625 32.33765625 -16.24765625 33.32765625 -12.84765625 34.34765625 C-13.83765625 32.03765625 -14.82765625 29.72765625 -15.84765625 27.34765625 C-14.52765625 27.01765625 -13.20765625 26.68765625 -11.84765625 26.34765625 C-14.15765625 25.35765625 -16.46765625 24.36765625 -18.84765625 23.34765625 C-17.74864463 16.47883365 -12.95376275 10.89124894 -8.41015625 5.91015625 C-7.94544922 5.36939453 -7.48074219 4.82863281 -7.00195312 4.27148438 C-4.71278224 1.74605317 -3.44847119 0.42100677 0 0 Z " fill="#59BA59" transform="translate(27.84765625,12.65234375)"/>
<path d="M0 0 C-1.20381448 2.49361571 -2.45428722 4.68143083 -4 7 C-3.236875 6.505 -2.47375 6.01 -1.6875 5.5 C1 4 1 4 4 4 C3.01 5.485 3.01 5.485 2 7 C4.31 5.35 6.62 3.7 9 2 C8.67 3.32 8.34 4.64 8 6 C11.87132028 5.42647107 14.08172796 3.51295648 17 1 C16 3 15 5 14 7 C14.42667969 6.4946875 14.85335938 5.989375 15.29296875 5.46875 C18.52152836 2.11371073 20.7053459 0.17567142 25.42578125 -0.46484375 C28.64274867 -0.44023307 31.79831292 -0.30747909 35 0 C36.53597454 3.07194908 36.2265038 5.60244293 36 9 C34.17419996 14.17310011 31.76999961 16.37163287 27 19 C23.21571667 20.32191457 19.34833401 20.12678798 15.390625 20.09765625 C14.66381531 20.0962413 13.93700562 20.09482635 13.18817139 20.09336853 C10.87540506 20.08778792 8.56273688 20.07523904 6.25 20.0625 C4.67838682 20.05748249 3.10677211 20.05292002 1.53515625 20.04882812 C-2.30996372 20.03867733 -6.15487248 20.01909832 -10 20 C-10 13.73 -10 7.46 -10 1 C-2 0 -2 0 0 0 Z " fill="#0CF339" transform="translate(242,67)"/>
<path d="M0 0 C10.23 0 20.46 0 31 0 C32.85495056 3.70990112 32.44709128 7.95063037 32 12 C29.99713498 15.76538624 27.4196351 17.9766572 23.3828125 19.48828125 C16.16389313 21.03857377 7.72760391 21.66539776 1.25 17.6875 C-0.484375 16.38671875 -0.484375 16.38671875 -2 15 C-2.54140625 14.59394531 -3.0828125 14.18789062 -3.640625 13.76953125 C-5 12 -5 12 -6 5 C-0.72 5 4.56 5 10 5 C10 5.99 10 6.98 10 8 C11.98 8 13.96 8 16 8 C16 7.34 16 6.68 16 6 C15.01257813 5.73445313 14.02515625 5.46890625 13.0078125 5.1953125 C11.71344502 4.83889247 10.41917941 4.48210234 9.125 4.125 C8.47402344 3.95097656 7.82304687 3.77695313 7.15234375 3.59765625 C2.2265625 2.2265625 2.2265625 2.2265625 0 0 Z " fill="#0AF439" transform="translate(433,67)"/>
<path d="M0 0 C3.96 0 7.92 0 12 0 C12 13.53 12 27.06 12 41 C8.04 41 4.08 41 0 41 C0 27.47 0 13.94 0 0 Z " fill="#FFFFFF" transform="translate(161,46)"/>
<path d="M0 0 C4.06210647 2.13327254 6.45220523 5.31323403 8.53515625 9.3125 C8.53515625 10.6325 8.53515625 11.9525 8.53515625 13.3125 C3.58515625 13.3125 -1.36484375 13.3125 -6.46484375 13.3125 C-6.79484375 12.6525 -7.12484375 11.9925 -7.46484375 11.3125 C-9.11484375 11.3125 -10.76484375 11.3125 -12.46484375 11.3125 C-12.79484375 11.9725 -13.12484375 12.6325 -13.46484375 13.3125 C-10.82484375 13.9725 -8.18484375 14.6325 -5.46484375 15.3125 C-5.46484375 15.6425 -5.46484375 15.9725 -5.46484375 16.3125 C-12.72484375 16.3125 -19.98484375 16.3125 -27.46484375 16.3125 C-27.46484375 7.3125 -27.46484375 7.3125 -25.21484375 3.875 C-18.65714347 -2.23558435 -8.46787927 -2.36188075 0 0 Z " fill="#0AF739" transform="translate(456.46484375,45.6875)"/>
<path d="M0 0 C1.2065625 0.2475 1.2065625 0.2475 2.4375 0.5 C5.69051703 1.14770583 5.69051703 1.14770583 9 0 C11.1875 1.4375 11.1875 1.4375 13 3 C12.67 2.01 12.34 1.02 12 0 C15.37462715 0.54723683 17.08235 1.0549 20 3 C19.67 2.01 19.34 1.02 19 0 C21.48445675 1.104203 23.13933833 2.13319105 25.125 4.03125 C28.91369718 6.62568394 31.82370504 6.66174845 36.3125 6.75 C37.05306641 6.77964844 37.79363281 6.80929688 38.55664062 6.83984375 C40.37052046 6.91005845 42.18526278 6.95735048 44 7 C43.67 8.32 43.34 9.64 43 11 C41.37191406 11.00386719 41.37191406 11.00386719 39.7109375 11.0078125 C31.87351222 10.90409024 31.87351222 10.90409024 24.671875 13.40234375 C22.93473901 15.1981735 22.93473901 15.1981735 21 18 C20.34 18 19.68 18 19 18 C19.33 16.68 19.66 15.36 20 14 C19.4225 14.680625 18.845 15.36125 18.25 16.0625 C17.5075 16.701875 16.765 17.34125 16 18 C13.75 17.75 13.75 17.75 12 17 C12 16.34 12 15.68 12 15 C11.319375 15.7425 11.319375 15.7425 10.625 16.5 C9 18 9 18 7 18 C7 17.01 7 16.02 7 15 C6.566875 15.495 6.13375 15.99 5.6875 16.5 C4 18 4 18 1 18 C2.20381448 15.50638429 3.45428722 13.31856917 5 11 C4.01 11.495 4.01 11.495 3 12 C-3.39889197 12.46537396 -3.39889197 12.46537396 -5.9375 10.5 C-6.288125 10.005 -6.63875 9.51 -7 9 C-5.9375 7.5 -5.9375 7.5 -4 6 C2.13846154 5.56923077 2.13846154 5.56923077 5 7 C3.35 4.69 1.7 2.38 0 0 Z " fill="#83350F" transform="translate(237,56)"/>
<path d="M0 0 C1.01513672 0.03673828 1.01513672 0.03673828 2.05078125 0.07421875 C3.06591797 0.07615234 3.06591797 0.07615234 4.1015625 0.078125 C7.77097632 0.14326252 9.42874024 0.36785808 12.55078125 2.44921875 C13.42662581 7.34921399 13.11338067 12.01459023 11.30078125 16.63671875 C7.37749117 19.22252357 4.05253807 19.31971078 -0.5859375 19.1328125 C-3.90597934 18.3401695 -4.83016701 17.63048951 -6.69921875 14.82421875 C-8.38188552 11.27052699 -9.16583178 8.39059044 -8.44921875 4.44921875 C-6.4372962 0.38099301 -4.43159018 -0.02622243 0 0 Z " fill="#CE0404" transform="translate(165.44921875,23.55078125)"/>
<path d="M0 0 C3.97245401 0.70936679 5.67231707 1.79731707 8.5 4.625 C10.03214888 7.68929776 9.72938548 10.2415642 9.5 13.625 C8.09539303 16.49805972 6.75489001 18.37010999 4.5 20.625 C-0.30073273 21.17590376 -2.41189752 21.32773285 -6.5 18.6875 C-8.8246685 15.12785137 -9.23910164 13.03162914 -8.98046875 8.8515625 C-7.86906039 3.70113353 -5.32050329 0.95008987 0 0 Z " fill="#25282C" transform="translate(131.5,55.375)"/>
<path d="M0 0 C2.9375 1.875 2.9375 1.875 5 5 C6.02264164 10.07163742 5.80712041 13.73887436 3 18.125 C-1.12517552 20.7032347 -3.19036119 20.62059856 -8 20 C-10.67431489 18.18836733 -10.95920359 17.12238923 -12 14 C-12.62805899 9.20880716 -12.68844911 6.02224261 -9.9375 1.9375 C-6.21772362 -0.51596953 -4.3766411 -0.78154305 0 0 Z " fill="#272A2E" transform="translate(85,56)"/>
<path d="M0 0 C25.41 0 50.82 0 77 0 C77 0.99 77 1.98 77 3 C51.59 3 26.18 3 0 3 C0 2.01 0 1.02 0 0 Z " fill="#9D3C10" transform="translate(396,63)"/>
<path d="M0 0 C-1.61594832 2.04119788 -3.2856382 4.04072937 -5 6 C-5.66 6 -6.32 6 -7 6 C-7.33 6.99 -7.66 7.98 -8 9 C-9.59472656 10.16333008 -9.59472656 10.16333008 -11.640625 11.26953125 C-12.38183594 11.68396484 -13.12304688 12.09839844 -13.88671875 12.52539062 C-15.44526868 13.37422071 -17.00513894 14.22063159 -18.56640625 15.06445312 C-24.34264832 18.3017425 -28.81872268 21.45616803 -31 28 C-31.66 28 -32.32 28 -33 28 C-32.40293362 18.94770326 -28.52514121 14.05136858 -22 8 C-15.50407286 2.3194612 -8.65006789 -0.54062924 0 0 Z " fill="#AE0708" transform="translate(58,4)"/>
<path d="M0 0 C0.721875 0.103125 1.44375 0.20625 2.1875 0.3125 C2.875 2.5625 2.875 2.5625 3.1875 5.3125 C2.72859375 5.91449219 2.2696875 6.51648438 1.796875 7.13671875 C-0.60003075 10.3771957 -1.03219374 13.86542006 -1.87109375 17.75390625 C-2.98996669 20.79482648 -4.02820809 21.72147605 -6.8125 23.3125 C-10.0625 24 -10.0625 24 -12.8125 24.3125 C-13.48354649 15.99152349 -11.45828608 10.31564028 -6.54296875 3.5703125 C-4.44270111 1.21001172 -3.16250148 0.35138905 0 0 Z " fill="#52B552" transform="translate(27.8125,12.6875)"/>
<path d="M0 0 C2.4375 0.8125 2.4375 0.8125 4.4375 2.8125 C6.56610662 3.18202049 6.56610662 3.18202049 9.0078125 3.2265625 C9.90371094 3.26523437 10.79960937 3.30390625 11.72265625 3.34375 C12.65980469 3.3746875 13.59695313 3.405625 14.5625 3.4375 C15.97982422 3.49550781 15.97982422 3.49550781 17.42578125 3.5546875 C19.76282375 3.64911346 22.09985501 3.73468394 24.4375 3.8125 C24.4375 4.8025 24.4375 5.7925 24.4375 6.8125 C21.73033758 7.71488747 20.19973232 7.93101302 17.42578125 7.91015625 C16.28979492 7.90532227 16.28979492 7.90532227 15.13085938 7.90039062 C14.34517578 7.89201172 13.55949219 7.88363281 12.75 7.875 C11.55407227 7.86823242 11.55407227 7.86823242 10.33398438 7.86132812 C8.36845743 7.8495585 6.40296915 7.83162348 4.4375 7.8125 C4.31375 8.43125 4.19 9.05 4.0625 9.6875 C3.4375 11.8125 3.4375 11.8125 1.4375 13.8125 C-1 13.75 -1 13.75 -3.5625 12.8125 C-5.78785743 10.14207109 -6.60395361 8.68302572 -6.4375 5.1875 C-5.07903213 1.50023007 -4.14412967 -0.303229 0 0 Z " fill="#833E12" transform="translate(303.5625,59.1875)"/>
<path d="M0 0 C9.1796875 -0.1953125 9.1796875 -0.1953125 12 0 C14 2 14 2 14.3125 5.4375 C14 9 14 9 12.8359375 10.7109375 C9.16715449 13.28689153 4.287003 12.15130599 0 12 C0 8.04 0 4.08 0 0 Z " fill="#23262A" transform="translate(27,46)"/>
<path d="M0 0 C0.33 0.66 0.66 1.32 1 2 C0.54625 2.845625 0.0925 3.69125 -0.375 4.5625 C-2.34959508 8.73952806 -2.70605529 12.43878905 -3 17 C-2.38511719 16.72285156 -1.77023438 16.44570313 -1.13671875 16.16015625 C-0.32847656 15.79792969 0.47976562 15.43570313 1.3125 15.0625 C2.11300781 14.70285156 2.91351563 14.34320313 3.73828125 13.97265625 C6 13 6 13 9 12 C9.0825 11.2575 9.165 10.515 9.25 9.75 C10.16692005 6.38795982 11.18181152 5.03535835 14 3 C16.75 3.25 16.75 3.25 19 4 C19.33 5.32 19.66 6.64 20 8 C19.01 8.33 18.02 8.66 17 9 C17 9.66 17 10.32 17 11 C14.55986243 12.24216259 12.11493581 13.47061082 9.65625 14.67578125 C8.11421056 15.44453326 6.58428597 16.24108006 5.09375 17.10546875 C2.44487984 18.53610853 0.53218463 19.10695029 -2.4296875 18.51171875 C-4.67755815 17.7729326 -6.83679404 16.95651964 -9 16 C-7.6466331 9.75263966 -4.07823697 4.80649357 0 0 Z " fill="#369936" transform="translate(18,20)"/>
<path d="M0 0 C1.2065625 0.2475 1.2065625 0.2475 2.4375 0.5 C5.69051703 1.14770583 5.69051703 1.14770583 9 0 C11.1875 1.4375 11.1875 1.4375 13 3 C12.67 2.01 12.34 1.02 12 0 C15.37462715 0.54723683 17.08235 1.0549 20 3 C19.67 2.01 19.34 1.02 19 0 C22.81360406 1.49820159 24.53926661 3.80001267 27 7 C23.62590441 7.20453151 20.25341008 7.32801449 16.875 7.4375 C15.92367187 7.49615234 14.97234375 7.55480469 13.9921875 7.61523438 C6.99730235 7.78524894 6.99730235 7.78524894 3.98144531 5.41064453 C2.49114922 3.67196576 1.19663421 1.95010546 0 0 Z " fill="#AF8959" transform="translate(237,56)"/>
<path d="M0 0 C1.40668945 0.01450195 1.40668945 0.01450195 2.84179688 0.02929688 C3.81826172 0.05443359 4.79472656 0.07957031 5.80078125 0.10546875 C6.78884766 0.11900391 7.77691406 0.13253906 8.79492188 0.14648438 C11.23492356 0.18184672 13.67382844 0.23119842 16.11328125 0.29296875 C15.16210991 1.46548185 14.20211116 2.6308389 13.23828125 3.79296875 C12.43777344 4.7675 12.43777344 4.7675 11.62109375 5.76171875 C11.12351562 6.26703125 10.6259375 6.77234375 10.11328125 7.29296875 C9.45328125 7.29296875 8.79328125 7.29296875 8.11328125 7.29296875 C8.44328125 5.97296875 8.77328125 4.65296875 9.11328125 3.29296875 C8.24703125 4.31390625 8.24703125 4.31390625 7.36328125 5.35546875 C6.62078125 5.99484375 5.87828125 6.63421875 5.11328125 7.29296875 C2.86328125 7.04296875 2.86328125 7.04296875 1.11328125 6.29296875 C1.11328125 5.63296875 1.11328125 4.97296875 1.11328125 4.29296875 C0.65953125 4.78796875 0.20578125 5.28296875 -0.26171875 5.79296875 C-1.88671875 7.29296875 -1.88671875 7.29296875 -3.88671875 7.29296875 C-3.88671875 6.30296875 -3.88671875 5.31296875 -3.88671875 4.29296875 C-4.31984375 4.78796875 -4.75296875 5.28296875 -5.19921875 5.79296875 C-6.88671875 7.29296875 -6.88671875 7.29296875 -9.88671875 7.29296875 C-7.59185037 2.17364698 -5.80941609 -0.10562575 0 0 Z " fill="#B28D5D" transform="translate(247.88671875,66.70703125)"/>
<path d="M0 0 C7.75 -0.125 7.75 -0.125 10 1 C10.25 6.625 10.25 6.625 8 10 C8.66 11.32 9.32 12.64 10 14 C7.53199953 12.84826645 5.95216435 11.95216435 4 10 C1.93125966 9.3574765 1.93125966 9.3574765 0 9 C0.99 10.65 1.98 12.3 3 14 C-0.16115776 12.63016497 -0.9927092 12.0109362 -3 9 C-2.01 8.67 -1.02 8.34 0 8 C0 5.36 0 2.72 0 0 Z " fill="#202D28" transform="translate(249,47)"/>
<path d="M0 0 C-0.99 0.495 -0.99 0.495 -2 1 C0.64 1.33 3.28 1.66 6 2 C6 2.33 6 2.66 6 3 C2.7 3 -0.6 3 -4 3 C-4 6.96 -4 10.92 -4 15 C-4.33 15 -4.66 15 -5 15 C-5 11.04 -5 7.08 -5 3 C-7.1346875 3.7425 -7.1346875 3.7425 -9.3125 4.5 C-12.13135886 5.48047265 -13.98509443 6 -17 6 C-17 18.54 -17 31.08 -17 44 C-17.33 44 -17.66 44 -18 44 C-18 31.13 -18 18.26 -18 5 C-20.31 4.34 -22.62 3.68 -25 3 C-25.33 2.34 -25.66 1.68 -26 1 C-24.989375 1.33 -23.97875 1.66 -22.9375 2 C-17.32906861 3.55414364 -13.01425342 3.72140136 -7.8125 0.9375 C-7.17957031 0.55464844 -6.54664062 0.17179687 -5.89453125 -0.22265625 C-3.53493698 -1.19081967 -2.36176985 -0.8326417 0 0 Z " fill="#5C765B" transform="translate(31,43)"/>
<path d="M0 0 C11.22 0 22.44 0 34 0 C34 0.99 34 1.98 34 3 C22.78 3 11.56 3 0 3 C0 2.01 0 1.02 0 0 Z " fill="#9C3F11" transform="translate(345,63)"/>
<path d="M0 0 C0.99 0.66 1.98 1.32 3 2 C2.25234375 2.45890625 1.5046875 2.9178125 0.734375 3.390625 C-0.25046875 4.00421875 -1.2353125 4.6178125 -2.25 5.25 C-3.22453125 5.85328125 -4.1990625 6.4565625 -5.203125 7.078125 C-9.8935451 10.15205923 -9.8935451 10.15205923 -12.4375 14.875 C-13.32854609 18.2411741 -15.77286351 20.38311462 -18 23 C-18.33 23.99 -18.66 24.98 -19 26 C-19.66 26 -20.32 26 -21 26 C-20.40374994 16.96007975 -16.5342519 12.03161714 -10 6 C-6.85126857 3.37505373 -3.93075514 1.31025171 0 0 Z " fill="#740907" transform="translate(46,6)"/>
<path d="M0 0 C7.18216433 2.27435204 14.0758202 5.03584181 21 8 C21 8.33 21 8.66 21 9 C15.06 9 9.12 9 3 9 C2.01 6.03 1.02 3.06 0 0 Z " fill="#C8C2C2" transform="translate(471,55)"/>
<path d="M0 0 C5.61 0 11.22 0 17 0 C13.9969578 2.25228165 12.41126313 3.4072029 9.109375 4.60546875 C8.40039062 4.86650391 7.69140625 5.12753906 6.9609375 5.39648438 C6.23132813 5.65751953 5.50171875 5.91855469 4.75 6.1875 C4.00492187 6.46013672 3.25984375 6.73277344 2.4921875 7.01367188 C0.66364395 7.68179356 -1.1678908 8.34171891 -3 9 C-2.01 6.03 -1.02 3.06 0 0 Z " fill="#C7C1C1" transform="translate(474,65)"/>
<path d="M0 0 C9.24 0 18.48 0 28 0 C28 0.33 28 0.66 28 1 C22.39 1 16.78 1 11 1 C10.34 2.65 9.68 4.3 9 6 C8 7 8 7 5.5625 7.1875 C3 7 3 7 1 5 C0.67 3.35 0.34 1.7 0 0 Z " fill="#253622" transform="translate(345,66)"/>
<path d="M0 0 C0.99 0 1.98 0 3 0 C2.34 1.32 1.68 2.64 1 4 C1.928125 4.391875 2.85625 4.78375 3.8125 5.1875 C7.2616332 7.14877182 8.39377452 8.43061004 10 12 C10 12.99 10 13.98 10 15 C6.44219804 14.39009109 3.3171411 13.4216319 0 12 C-0.19477739 10.37585622 -0.38059458 8.75063577 -0.5625 7.125 C-0.66691406 6.22007813 -0.77132813 5.31515625 -0.87890625 4.3828125 C-1 2 -1 2 0 0 Z " fill="#2A8E2A" transform="translate(5,32)"/>
<path d="M0 0 C1.03543945 0.05027344 1.03543945 0.05027344 2.09179688 0.1015625 C3.14463867 0.12863281 3.14463867 0.12863281 4.21875 0.15625 C5.94785123 0.20330037 7.67624893 0.27504377 9.40429688 0.3515625 C9.40429688 0.6815625 9.40429688 1.0115625 9.40429688 1.3515625 C8.56125 1.40054687 7.71820313 1.44953125 6.84960938 1.5 C5.75390625 1.57476563 4.65820312 1.64953125 3.52929688 1.7265625 C1.89347656 1.83097656 1.89347656 1.83097656 0.22460938 1.9375 C-2.72616787 2.08409741 -2.72616787 2.08409741 -4.59570312 4.3515625 C-4.93644164 7.96339076 -4.77804985 10.75242326 -3.72070312 14.2265625 C-0.32636864 17.62089699 3.77524086 17.25602851 8.40429688 17.3515625 C8.40429688 17.6815625 8.40429688 18.0115625 8.40429688 18.3515625 C4.30666738 18.82210369 0.48436019 19.04130012 -3.59570312 18.3515625 C-7.2668026 15.33360342 -8.39066821 11.68428944 -9.09570312 7.1015625 C-8.04488151 1.3220436 -5.86774088 -0.1133863 0 0 Z " fill="#A20304" transform="translate(165.595703125,23.6484375)"/>
<path d="M0 0 C0.99 0 1.98 0 3 0 C2.3470368 4.06846303 0.20914312 7.25667037 -1.9375 10.6875 C-2.29779297 11.28111328 -2.65808594 11.87472656 -3.02929688 12.48632812 C-5.74503251 16.87251626 -5.74503251 16.87251626 -8 18 C-6.38322241 11.58546776 -4.57433959 4.9927243 0 0 Z " fill="#73D973" transform="translate(26,14)"/>
<path d="M0 0 C0.66 0.66 1.32 1.32 2 2 C0.37660195 3.70884005 -1.29319053 5.37446717 -3 7 C-3.66 7 -4.32 7 -5 7 C-5 6.01 -5 5.02 -5 4 C-5.433125 4.495 -5.86625 4.99 -6.3125 5.5 C-8 7 -8 7 -11 7 C-8.43839186 1.28564337 -6.52749383 -0.69441424 0 0 Z " fill="#C89D64" transform="translate(249,67)"/>
<path d="M0 0 C0 1.98 0 3.96 0 6 C-6.52307692 6.36923077 -6.52307692 6.36923077 -8.9375 4.5 C-9.4634375 3.7575 -9.4634375 3.7575 -10 3 C-7.29536552 -0.8183075 -4.37912428 -0.24787496 0 0 Z " fill="#B23C14" transform="translate(240,62)"/>
<path d="M0 0 C0.33 0.33 0.66 0.66 1 1 C3.85877909 1.23701239 6.69883297 1.42219182 9.5625 1.5625 C10.36880859 1.60568359 11.17511719 1.64886719 12.00585938 1.69335938 C14.00368805 1.79975262 16.0018207 1.90040888 18 2 C18.33 1.34 18.66 0.68 19 0 C19 0.99 19 1.98 19 3 C10.09 3 1.18 3 -8 3 C-7.67 2.01 -7.34 1.02 -7 0 C-4.31633121 -1.3418344 -2.84719317 -0.73004953 0 0 Z " fill="#214C21" transform="translate(354,60)"/>
<path d="M0 0 C3.3 0 6.6 0 10 0 C9 4 9 4 7 6 C3.70285207 5.67028521 2.3773161 5.3773161 0 3 C0 2.01 0 1.02 0 0 Z " fill="#202827" transform="translate(298,67)"/>
<path d="M0 0 C1.2065625 0.2475 1.2065625 0.2475 2.4375 0.5 C5.69051703 1.14770583 5.69051703 1.14770583 9 0 C10.65 1.98 12.3 3.96 14 6 C6.17847534 6.92017937 6.17847534 6.92017937 3.2890625 4.6640625 C1.9375 3 1.9375 3 0 0 Z " fill="#C59A62" transform="translate(237,56)"/>
<path d="M0 0 C2.625 0.375 2.625 0.375 5 1 C5.33 2.32 5.66 3.64 6 5 C5.01 5.33 4.02 5.66 3 6 C3 6.66 3 7.32 3 8 C1.1875 9.0625 1.1875 9.0625 -1 10 C-1.99 9.67 -2.98 9.34 -4 9 C-2.02 7.68 -0.04 6.36 2 5 C-0.15634036 5 -1.92446352 5.4465236 -4 6 C-2.84826645 3.53199953 -1.95216435 1.95216435 0 0 Z " fill="#2D6B2C" transform="translate(32,23)"/>
<path d="M0 0 C0.721875 0.103125 1.44375 0.20625 2.1875 0.3125 C2.875 2.625 2.875 2.625 3.1875 5.3125 C1.75 7.125 1.75 7.125 0.1875 8.3125 C0.5175 6.0025 0.8475 3.6925 1.1875 1.3125 C-2.35127543 2.49209181 -2.56548976 3.17684059 -4.3125 6.3125 C-6.47916667 10.20138889 -6.47916667 10.20138889 -9.8125 11.3125 C-8.40722951 5.81916992 -6.17276971 0.6858633 0 0 Z " fill="#52B652" transform="translate(27.8125,12.6875)"/>
<path d="M0 0 C0 0.99 0 1.98 0 3 C-1.64556566 4.03435556 -3.3170608 5.02763513 -5 6 C-6.2065625 7.2684375 -6.2065625 7.2684375 -7.4375 8.5625 C-10.22324013 11.21235037 -12.31545625 12.0574423 -16 13 C-16 12.01 -16 11.02 -16 10 C-13.0173094 8.47551369 -10.181798 7.06059933 -7 6 C-7 5.01 -7 4.02 -7 3 C-4.69 2.01 -2.38 1.02 0 0 Z " fill="#338033" transform="translate(34,26)"/>
<path d="M0 0 C-1 3 -1 3 -3 5 C-3 5.33 -3 5.66 -3 6 C-6.63 6 -10.26 6 -14 6 C-12.68 5.67 -11.36 5.34 -10 5 C-10 3.68 -10 2.36 -10 1 C-8.68 1 -7.36 1 -6 1 C-4 0 -4 0 0 0 Z " fill="#36261F" transform="translate(176,18)"/>
<path d="M0 0 C1.21236328 0.02707031 1.21236328 0.02707031 2.44921875 0.0546875 C3.37154297 0.08949219 3.37154297 0.08949219 4.3125 0.125 C3.9825 1.115 3.6525 2.105 3.3125 3.125 C4.18733915 5.29215557 4.18733915 5.29215557 5.3125 7.125 C2.84449953 5.97326645 1.26466435 5.07716435 -0.6875 3.125 C-2.75624034 2.4824765 -2.75624034 2.4824765 -4.6875 2.125 C-3.6975 3.775 -2.7075 5.425 -1.6875 7.125 C-4.84865776 5.75516497 -5.6802092 5.1359362 -7.6875 2.125 C-4.48369983 -0.01086678 -3.66810033 -0.10632175 0 0 Z " fill="#3B6F2F" transform="translate(253.6875,53.875)"/>
<path d="M0 0 C0.66 0.33 1.32 0.66 2 1 C0.6015209 4.4087928 -0.85006933 5.87393835 -4 7.75 C-5.051875 8.39195313 -5.051875 8.39195313 -6.125 9.046875 C-8 10 -8 10 -10 10 C-10 10.66 -10 11.32 -10 12 C-10.66 12 -11.32 12 -12 12 C-10.64195446 8.8785222 -9.18624145 7.03041771 -6.5625 4.875 C-5.96566406 4.37742187 -5.36882813 3.87984375 -4.75390625 3.3671875 C-3.22237694 2.17334505 -1.6157298 1.0771532 0 0 Z " fill="#C40A0A" transform="translate(45,9)"/>
<path d="M0 0 C1.65 0 3.3 0 5 0 C5.33 0.99 5.66 1.98 6 3 C10.95 3 15.9 3 21 3 C21 3.33 21 3.66 21 4 C18.0837882 4.22201613 15.16792256 4.42808498 12.25 4.625 C11.425 4.68945312 10.6 4.75390625 9.75 4.8203125 C8.95078125 4.871875 8.1515625 4.9234375 7.328125 4.9765625 C6.22839355 5.05511475 6.22839355 5.05511475 5.10644531 5.13525391 C2.65224559 4.97767085 1.11146787 4.22264839 -1 3 C-0.67 2.01 -0.34 1.02 0 0 Z " fill="#1C5529" transform="translate(444,56)"/>
<path d="M0 0 C0.33 0 0.66 0 1 0 C1 8.91 1 17.82 1 27 C2.98 27 4.96 27 7 27 C7.33 26.34 7.66 25.68 8 25 C8.66 26.32 9.32 27.64 10 29 C6.7 28.67 3.4 28.34 0 28 C0 18.76 0 9.52 0 0 Z " fill="#15C032" transform="translate(232,34)"/>
<path d="M0 0 C0.33 0.66 0.66 1.32 1 2 C0.67 2.66 0.34 3.32 0 4 C0.99 4.66 1.98 5.32 3 6 C-2.61 6 -8.22 6 -14 6 C-14 5.34 -14 4.68 -14 4 C-12.8553125 4.0928125 -12.8553125 4.0928125 -11.6875 4.1875 C-8.95474688 4.25898085 -8.95474688 4.25898085 -7.1875 2.5 C-6.795625 2.005 -6.40375 1.51 -6 1 C-5.34 1.33 -4.68 1.66 -4 2 C-4.99 3.485 -4.99 3.485 -6 5 C-4.02 3.35 -2.04 1.7 0 0 Z " fill="#497235" transform="translate(250,69)"/>
<path d="M0 0 C0.12375 0.804375 0.2475 1.60875 0.375 2.4375 C0.58125 3.283125 0.7875 4.12875 1 5 C1.66 5.33 2.32 5.66 3 6 C1.73461631 6.84158536 0.46246221 7.67299748 -0.8125 8.5 C-1.52019531 8.9640625 -2.22789063 9.428125 -2.95703125 9.90625 C-5 11 -5 11 -8 11 C-8 10.34 -8 9.68 -8 9 C-6.865625 8.566875 -5.73125 8.13375 -4.5625 7.6875 C-3.386875 7.130625 -2.21125 6.57375 -1 6 C-0.67 5.01 -0.34 4.02 0 3 C-1.65 3.33 -3.3 3.66 -5 4 C-4.67 3.01 -4.34 2.02 -4 1 C-2 0 -2 0 0 0 Z " fill="#3E7C3E" transform="translate(40,30)"/>
<path d="M0 0 C0 3 0 3 -1 6 C3.455 6.99 3.455 6.99 8 8 C7.34 8.66 6.68 9.32 6 10 C1.59132188 9.70608813 -1.36337396 8.46007056 -5 6 C-2.25 1.125 -2.25 1.125 0 0 Z " fill="#19591A" transform="translate(10,30)"/>
<path d="M0 0 C-0.66 1.32 -1.32 2.64 -2 4 C-2.33 3.34 -2.66 2.68 -3 2 C-4.98 2 -6.96 2 -9 2 C-9 7.94 -9 13.88 -9 20 C-9.33 20 -9.66 20 -10 20 C-10 13.73 -10 7.46 -10 1 C-2 0 -2 0 0 0 Z " fill="#16BB32" transform="translate(242,67)"/>
<path d="M0 0 C0.99 0.66 1.98 1.32 3 2 C-5.261959 7.55580866 -5.261959 7.55580866 -10 8 C-10 7.34 -10 6.68 -10 6 C-8.57421875 4.74609375 -8.57421875 4.74609375 -6.6875 3.4375 C-6.07261719 3.00308594 -5.45773438 2.56867187 -4.82421875 2.12109375 C-3 1 -3 1 0 0 Z " fill="#7A0909" transform="translate(46,6)"/>
<path d="M0 0 C-0.1875 1.875 -0.1875 1.875 -1 4 C-3.5625 5.25 -3.5625 5.25 -6 6 C-6.33 5.34 -6.66 4.68 -7 4 C-7.99 3.67 -8.98 3.34 -10 3 C-7.29536552 -0.8183075 -4.37912428 -0.24787496 0 0 Z " fill="#4EB24E" transform="translate(40,33)"/>
<path d="M0 0 C3.67420866 0.30618405 4.78135513 0.75771784 7.3125 3.5625 C8.1478125 4.7690625 8.1478125 4.7690625 9 6 C6.75 6.25 6.75 6.25 4 6 C1.6875 4.125 1.6875 4.125 0 2 C0 1.34 0 0.68 0 0 Z " fill="#CEA267" transform="translate(249,56)"/>
<path d="M0 0 C2.375 0.3125 2.375 0.3125 5 1 C5.66 1.99 6.32 2.98 7 4 C3.7 4 0.4 4 -3 4 C-2.01 2.68 -1.02 1.36 0 0 Z " fill="#212A24" transform="translate(301,59)"/>
<path d="M0 0 C0.99 0 1.98 0 3 0 C2.34 1.32 1.68 2.64 1 4 C1.66 4.66 2.32 5.32 3 6 C2.34 6 1.68 6 1 6 C1 6.99 1 7.98 1 9 C1.66 9 2.32 9 3 9 C2.67 10.32 2.34 11.64 2 13 C1.34 12.67 0.68 12.34 0 12 C-0.44921875 9.78515625 -0.44921875 9.78515625 -0.6875 7.0625 C-0.81705078 5.71865234 -0.81705078 5.71865234 -0.94921875 4.34765625 C-1 2 -1 2 0 0 Z " fill="#277C27" transform="translate(5,32)"/>
<path d="M0 0 C1.32 0 2.64 0 4 0 C2.84826645 2.46800047 1.95216435 4.04783565 0 6 C-2.125 5.625 -2.125 5.625 -4 5 C-2.25 2.5 -2.25 2.5 0 0 Z " fill="#CA9E65" transform="translate(253,68)"/>
<path d="M0 0 C1.85772162 0.08984301 3.71247985 0.24611861 5.5625 0.4375 C7.08037109 0.59025391 7.08037109 0.59025391 8.62890625 0.74609375 C9.80259766 0.87177734 9.80259766 0.87177734 11 1 C11 1.33 11 1.66 11 2 C7.7 2 4.4 2 1 2 C1 5.96 1 9.92 1 14 C0.67 14 0.34 14 0 14 C-0.19393875 11.85473901 -0.37998676 9.70876323 -0.5625 7.5625 C-0.71912109 5.77005859 -0.71912109 5.77005859 -0.87890625 3.94140625 C-0.91886719 2.97074219 -0.95882813 2.00007813 -1 1 C-0.67 0.67 -0.34 0.34 0 0 Z " fill="#7A7978" transform="translate(26,44)"/>
<path d="M0 0 C0.66 0.33 1.32 0.66 2 1 C2.375 3.25 2.375 3.25 2 6 C-0.75 8.375 -0.75 8.375 -4 10 C-6.375 9.75 -6.375 9.75 -8 9 C-6.02 8.34 -4.04 7.68 -2 7 C-2 6.34 -2 5.68 -2 5 C-1.34 4.67 -0.68 4.34 0 4 C0 2.68 0 1.36 0 0 Z " fill="#60BC60" transform="translate(37,24)"/>
<path d="M0 0 C0.66 0.33 1.32 0.66 2 1 C0.7874262 4.72433382 -0.50859979 8.37802806 -2 12 C-2.66 12 -3.32 12 -4 12 C-3.71788123 10.3733152 -3.42397625 8.74867104 -3.125 7.125 C-2.96257813 6.22007813 -2.80015625 5.31515625 -2.6328125 4.3828125 C-2 2 -2 2 0 0 Z " fill="#2E1D0C" transform="translate(29,20)"/>
<path d="M0 0 C1.670625 0.061875 1.670625 0.061875 3.375 0.125 C1.725 1.775 0.075 3.425 -1.625 5.125 C-1.625 4.465 -1.625 3.805 -1.625 3.125 C-2.945 2.795 -4.265 2.465 -5.625 2.125 C-3.625 0.125 -3.625 0.125 0 0 Z " fill="#9C0B0C" transform="translate(54.625,3.875)"/>
<path d="M0 0 C0.99 0 1.98 0 3 0 C2.875 1.875 2.875 1.875 2 4 C-1.0625 5.25 -1.0625 5.25 -4 6 C-2.84826645 3.53199953 -1.95216435 1.95216435 0 0 Z " fill="#288728" transform="translate(32,23)"/>
<path d="M0 0 C1.32 0 2.64 0 4 0 C4.12375 0.969375 4.2475 1.93875 4.375 2.9375 C4.58125 3.948125 4.7875 4.95875 5 6 C5.66 6.33 6.32 6.66 7 7 C5.68 7 4.36 7 3 7 C2.01 4.69 1.02 2.38 0 0 Z " fill="#44A944" transform="translate(12,40)"/>
<path d="M0 0 C1.65 0 3.3 0 5 0 C5.6875 2.3125 5.6875 2.3125 6 5 C4.5625 6.8125 4.5625 6.8125 3 8 C3.33 5.69 3.66 3.38 4 1 C2.35 1.33 0.7 1.66 -1 2 C-0.67 1.34 -0.34 0.68 0 0 Z " fill="#4FA64F" transform="translate(25,13)"/>
<path d="M0 0 C-0.33 0.99 -0.66 1.98 -1 3 C-2.98 3.33 -4.96 3.66 -7 4 C-6.67 3.01 -6.34 2.02 -6 1 C-4 0 -4 0 0 0 Z " fill="#416B06" transform="translate(176,18)"/>
<path d="M0 0 C3.25543229 0.34879632 4.01873107 1.02133261 6.25 3.5625 C6.8275 4.366875 7.405 5.17125 8 6 C6.68 6 5.36 6 4 6 C1.75 3 1.75 3 0 0 Z " fill="#CBA166" transform="translate(243,56)"/>
<path d="M0 0 C0.33 0.66 0.66 1.32 1 2 C0.67 2.66 0.34 3.32 0 4 C0.99 4.66 1.98 5.32 3 6 C0.69 6 -1.62 6 -4 6 C-2.84826645 3.53199953 -1.95216435 1.95216435 0 0 Z " fill="#378436" transform="translate(250,69)"/>
<path d="M0 0 C-1.28913487 0.67154933 -2.58140204 1.33708859 -3.875 2 C-4.59429688 2.37125 -5.31359375 2.7425 -6.0546875 3.125 C-8 4 -8 4 -10 4 C-10 3.34 -10 2.68 -10 2 C-4.10714286 -1.34821429 -4.10714286 -1.34821429 0 0 Z " fill="#3F7E3F" transform="translate(31,43)"/>
<path d="M0 0 C0.33 1.65 0.66 3.3 1 5 C0.67 4.34 0.34 3.68 0 3 C-1.65 3.33 -3.3 3.66 -5 4 C-4.67 3.01 -4.34 2.02 -4 1 C-2 0 -2 0 0 0 Z " fill="#3B903B" transform="translate(40,30)"/>
<path d="M0 0 C0 0.99 0 1.98 0 3 C-3 5 -3 5 -6 5 C-5.67 4.01 -5.34 3.02 -5 2 C-2.4375 0.8125 -2.4375 0.8125 0 0 Z " fill="#50B650" transform="translate(34,26)"/>
<path d="M0 0 C0.66 0.33 1.32 0.66 2 1 C1.1875 3.9375 1.1875 3.9375 0 7 C-0.99 7.33 -1.98 7.66 -3 8 C-1.125 1.125 -1.125 1.125 0 0 Z " fill="#5AC05A" transform="translate(19,23)"/>
<path d="M0 0 C0.88492145 2.47778006 1.11637742 3.66056586 0.25 6.1875 C-1 8 -1 8 -4 9 C-2.80100302 5.9168649 -1.52299523 2.93720508 0 0 Z " fill="#5CC15C" transform="translate(27,18)"/>
<path d="M0 0 C0.66 0.33 1.32 0.66 2 1 C1.1875 2.9375 1.1875 2.9375 0 5 C-0.99 5.33 -1.98 5.66 -3 6 C-3 5.34 -3 4.68 -3 4 C-3.66 3.67 -4.32 3.34 -5 3 C-2.625 1.4375 -2.625 1.4375 0 0 Z " fill="#231B14" transform="translate(38,19)"/>
</svg>
